<?xml version="1.0" encoding="UTF-8" standalone="no"?>
<!DOCTYPE svg PUBLIC "-//W3C//DTD SVG 1.1//EN"
 "http://www.w3.org/Graphics/SVG/1.1/DTD/svg11.dtd">
<!-- Generated by graphviz version 2.40.1 (20161225.0304)
 -->
<!-- Title: dependencies Pages: 1 -->
<svg width="504pt" height="284pt"
 viewBox="0.00 0.00 504.00 284.00" xmlns="http://www.w3.org/2000/svg" xmlns:xlink="http://www.w3.org/1999/xlink">
<g id="graph0" class="graph" transform="scale(1 1) rotate(0) translate(4 280)">
<title>dependencies</title>
<polygon fill="#ffffff" stroke="transparent" points="-4,4 -4,-280 500,-280 500,4 -4,4"/>
<text text-anchor="start" x="227.0091" y="-42.4" font-family="sans-serif" font-weight="bold" font-size="14.00" fill="#000000">Legend</text>
<polygon fill="#ffffb3" stroke="transparent" points="14,-10 14,-30 34,-30 34,-10 14,-10"/>
<text text-anchor="start" x="37.629" y="-15.4" font-family="sans-serif" font-size="14.00" fill="#000000"> &#160;Declarations</text>
<polygon fill="#8dd3c7" stroke="transparent" points="127,-10 127,-30 147,-30 147,-10 127,-10"/>
<text text-anchor="start" x="150.7251" y="-15.4" font-family="sans-serif" font-size="14.00" fill="#000000"> &#160;Module</text>
<polygon fill="#80b1d3" stroke="transparent" points="213,-10 213,-30 233,-30 233,-10 213,-10"/>
<text text-anchor="start" x="236.7812" y="-15.4" font-family="sans-serif" font-size="14.00" fill="#000000"> &#160;Bootstrap</text>
<polygon fill="#fdb462" stroke="transparent" points="310,-10 310,-30 330,-30 330,-10 310,-10"/>
<text text-anchor="start" x="333.6732" y="-15.4" font-family="sans-serif" font-size="14.00" fill="#000000"> &#160;Providers</text>
<polygon fill="#fb8072" stroke="transparent" points="406,-10 406,-30 426,-30 426,-10 406,-10"/>
<text text-anchor="start" x="429.7258" y="-15.4" font-family="sans-serif" font-size="14.00" fill="#000000"> &#160;Exports</text>
<g id="clust1" class="cluster">
<title>cluster_NavbarModule</title>
<polygon fill="none" stroke="#000000" stroke-dasharray="1,5" points="12,-70 12,-268 484,-268 484,-70 12,-70"/>
</g>
<g id="clust2" class="cluster">
<title>cluster_NavbarModule_declarations</title>
<polygon fill="none" stroke="#000000" points="338,-78 338,-130 476,-130 476,-78 338,-78"/>
</g>
<g id="clust4" class="cluster">
<title>cluster_NavbarModule_imports</title>
<polygon fill="none" stroke="#000000" points="20,-78 20,-130 330,-130 330,-78 20,-78"/>
</g>
<g id="clust5" class="cluster">
<title>cluster_NavbarModule_exports</title>
<polygon fill="none" stroke="#000000" points="187,-208 187,-260 329,-260 329,-208 187,-208"/>
</g>
<!-- NavbarComponent -->
<g id="node1" class="node">
<title>NavbarComponent</title>
<polygon fill="#ffffb3" stroke="#000000" points="468.0297,-122 345.9703,-122 345.9703,-86 468.0297,-86 468.0297,-122"/>
<text text-anchor="middle" x="407" y="-99.8" font-family="Times,serif" font-size="14.00" fill="#000000">NavbarComponent</text>
</g>
<!-- NavbarModule -->
<g id="node2" class="node">
<title>NavbarModule</title>
<polygon fill="#8dd3c7" stroke="#000000" points="308.2465,-187 305.2465,-191 284.2465,-191 281.2465,-187 207.7535,-187 207.7535,-151 308.2465,-151 308.2465,-187"/>
<text text-anchor="middle" x="258" y="-164.8" font-family="Times,serif" font-size="14.00" fill="#000000">NavbarModule</text>
</g>
<!-- NavbarComponent&#45;&gt;NavbarModule -->
<g id="edge1" class="edge">
<title>NavbarComponent&#45;&gt;NavbarModule</title>
<path fill="none" stroke="#000000" d="M407,-122.1061C407,-141.3391 407,-169 407,-169 407,-169 318.4446,-169 318.4446,-169"/>
<polygon fill="#000000" stroke="#000000" points="318.4446,-165.5001 308.4446,-169 318.4446,-172.5001 318.4446,-165.5001"/>
</g>
<!-- NavbarComponent  -->
<g id="node5" class="node">
<title>NavbarComponent </title>
<polygon fill="#fb8072" stroke="#000000" points="321.0288,-252 194.9712,-252 194.9712,-216 321.0288,-216 321.0288,-252"/>
<text text-anchor="middle" x="258" y="-229.8" font-family="Times,serif" font-size="14.00" fill="#000000">NavbarComponent </text>
</g>
<!-- NavbarModule&#45;&gt;NavbarComponent  -->
<g id="edge4" class="edge">
<title>NavbarModule&#45;&gt;NavbarComponent </title>
<path fill="none" stroke="#000000" stroke-dasharray="5,2" d="M258,-187.1061C258,-187.1061 258,-205.991 258,-205.991"/>
<polygon fill="#000000" stroke="#000000" points="254.5001,-205.9909 258,-215.991 261.5001,-205.991 254.5001,-205.9909"/>
</g>
<!-- AppRoutingModule -->
<g id="node3" class="node">
<title>AppRoutingModule</title>
<polygon fill="#8dd3c7" stroke="#000000" points="322.2744,-122 319.2744,-126 298.2744,-126 295.2744,-122 193.7256,-122 193.7256,-86 322.2744,-86 322.2744,-122"/>
<text text-anchor="middle" x="258" y="-99.8" font-family="Times,serif" font-size="14.00" fill="#000000">AppRoutingModule</text>
</g>
<!-- AppRoutingModule&#45;&gt;NavbarModule -->
<g id="edge2" class="edge">
<title>AppRoutingModule&#45;&gt;NavbarModule</title>
<path fill="none" stroke="#000000" d="M258,-122.1061C258,-122.1061 258,-140.991 258,-140.991"/>
<polygon fill="#000000" stroke="#000000" points="254.5001,-140.9909 258,-150.991 261.5001,-140.991 254.5001,-140.9909"/>
</g>
<!-- NavbarMaterialModule -->
<g id="node4" class="node">
<title>NavbarMaterialModule</title>
<polygon fill="#8dd3c7" stroke="#000000" points="176.1671,-122 173.1671,-126 152.1671,-126 149.1671,-122 27.8329,-122 27.8329,-86 176.1671,-86 176.1671,-122"/>
<text text-anchor="middle" x="102" y="-99.8" font-family="Times,serif" font-size="14.00" fill="#000000">NavbarMaterialModule</text>
</g>
<!-- NavbarMaterialModule&#45;&gt;NavbarModule -->
<g id="edge3" class="edge">
<title>NavbarMaterialModule&#45;&gt;NavbarModule</title>
<path fill="none" stroke="#000000" d="M102,-122.1061C102,-141.3391 102,-169 102,-169 102,-169 197.3513,-169 197.3513,-169"/>
<polygon fill="#000000" stroke="#000000" points="197.3513,-172.5001 207.3513,-169 197.3512,-165.5001 197.3513,-172.5001"/>
</g>
</g>
</svg>
