<?xml version="1.0" encoding="UTF-8" standalone="no"?>
<!DOCTYPE svg PUBLIC "-//W3C//DTD SVG 1.1//EN"
 "http://www.w3.org/Graphics/SVG/1.1/DTD/svg11.dtd">
<!-- Generated by graphviz version 2.40.1 (20161225.0304)
 -->
<!-- Title: dependencies Pages: 1 -->
<svg width="504pt" height="211pt"
 viewBox="0.00 0.00 504.00 211.00" xmlns="http://www.w3.org/2000/svg" xmlns:xlink="http://www.w3.org/1999/xlink">
<g id="graph0" class="graph" transform="scale(1 1) rotate(0) translate(4 207)">
<title>dependencies</title>
<polygon fill="#ffffff" stroke="transparent" points="-4,4 -4,-207 500,-207 500,4 -4,4"/>
<text text-anchor="start" x="227.0091" y="-42.4" font-family="sans-serif" font-weight="bold" font-size="14.00" fill="#000000">Legend</text>
<polygon fill="#ffffb3" stroke="transparent" points="14,-10 14,-30 34,-30 34,-10 14,-10"/>
<text text-anchor="start" x="37.629" y="-15.4" font-family="sans-serif" font-size="14.00" fill="#000000"> &#160;Declarations</text>
<polygon fill="#8dd3c7" stroke="transparent" points="127,-10 127,-30 147,-30 147,-10 127,-10"/>
<text text-anchor="start" x="150.7251" y="-15.4" font-family="sans-serif" font-size="14.00" fill="#000000"> &#160;Module</text>
<polygon fill="#80b1d3" stroke="transparent" points="213,-10 213,-30 233,-30 233,-10 213,-10"/>
<text text-anchor="start" x="236.7812" y="-15.4" font-family="sans-serif" font-size="14.00" fill="#000000"> &#160;Bootstrap</text>
<polygon fill="#fdb462" stroke="transparent" points="310,-10 310,-30 330,-30 330,-10 310,-10"/>
<text text-anchor="start" x="333.6732" y="-15.4" font-family="sans-serif" font-size="14.00" fill="#000000"> &#160;Providers</text>
<polygon fill="#fb8072" stroke="transparent" points="406,-10 406,-30 426,-30 426,-10 406,-10"/>
<text text-anchor="start" x="429.7258" y="-15.4" font-family="sans-serif" font-size="14.00" fill="#000000"> &#160;Exports</text>
<g id="clust1" class="cluster">
<title>cluster_NewProposalModule</title>
<polygon fill="none" stroke="#000000" stroke-dasharray="1,5" points="38,-70 38,-195 458,-195 458,-70 38,-70"/>
</g>
<g id="clust2" class="cluster">
<title>cluster_NewProposalModule_declarations</title>
<polygon fill="none" stroke="#000000" points="250,-78 250,-130 450,-130 450,-78 250,-78"/>
</g>
<g id="clust4" class="cluster">
<title>cluster_NewProposalModule_imports</title>
<polygon fill="none" stroke="#000000" points="46,-78 46,-130 242,-130 242,-78 46,-78"/>
</g>
<!-- NewProposalPageComponent -->
<g id="node1" class="node">
<title>NewProposalPageComponent</title>
<polygon fill="#ffffb3" stroke="#000000" points="441.965,-122 258.035,-122 258.035,-86 441.965,-86 441.965,-122"/>
<text text-anchor="middle" x="350" y="-99.8" font-family="Times,serif" font-size="14.00" fill="#000000">NewProposalPageComponent</text>
</g>
<!-- NewProposalModule -->
<g id="node2" class="node">
<title>NewProposalModule</title>
<polygon fill="#8dd3c7" stroke="#000000" points="314.4706,-187 311.4706,-191 290.4706,-191 287.4706,-187 179.5294,-187 179.5294,-151 314.4706,-151 314.4706,-187"/>
<text text-anchor="middle" x="247" y="-164.8" font-family="Times,serif" font-size="14.00" fill="#000000">NewProposalModule</text>
</g>
<!-- NewProposalPageComponent&#45;&gt;NewProposalModule -->
<g id="edge1" class="edge">
<title>NewProposalPageComponent&#45;&gt;NewProposalModule</title>
<path fill="none" stroke="#000000" d="M286.2514,-122.1061C286.2514,-122.1061 286.2514,-140.991 286.2514,-140.991"/>
<polygon fill="#000000" stroke="#000000" points="282.7515,-140.9909 286.2514,-150.991 289.7515,-140.991 282.7515,-140.9909"/>
</g>
<!-- NewProposalRoutingModule -->
<g id="node3" class="node">
<title>NewProposalRoutingModule</title>
<polygon fill="#8dd3c7" stroke="#000000" points="234.0884,-122 231.0884,-126 210.0884,-126 207.0884,-122 53.9116,-122 53.9116,-86 234.0884,-86 234.0884,-122"/>
<text text-anchor="middle" x="144" y="-99.8" font-family="Times,serif" font-size="14.00" fill="#000000">NewProposalRoutingModule</text>
</g>
<!-- NewProposalRoutingModule&#45;&gt;NewProposalModule -->
<g id="edge2" class="edge">
<title>NewProposalRoutingModule&#45;&gt;NewProposalModule</title>
<path fill="none" stroke="#000000" d="M206.7795,-122.1061C206.7795,-122.1061 206.7795,-140.991 206.7795,-140.991"/>
<polygon fill="#000000" stroke="#000000" points="203.2795,-140.9909 206.7795,-150.991 210.2795,-140.991 203.2795,-140.9909"/>
</g>
</g>
</svg>
