<?xml version="1.0" encoding="UTF-8" standalone="no"?>
<!DOCTYPE svg PUBLIC "-//W3C//DTD SVG 1.1//EN"
 "http://www.w3.org/Graphics/SVG/1.1/DTD/svg11.dtd">
<!-- Generated by graphviz version 2.40.1 (20161225.0304)
 -->
<!-- Title: dependencies Pages: 1 -->
<svg width="1356pt" height="284pt"
 viewBox="0.00 0.00 1356.00 284.00" xmlns="http://www.w3.org/2000/svg" xmlns:xlink="http://www.w3.org/1999/xlink">
<g id="graph0" class="graph" transform="scale(1 1) rotate(0) translate(4 280)">
<title>dependencies</title>
<polygon fill="#ffffff" stroke="transparent" points="-4,4 -4,-280 1352,-280 1352,4 -4,4"/>
<text text-anchor="start" x="653.0091" y="-42.4" font-family="sans-serif" font-weight="bold" font-size="14.00" fill="#000000">Legend</text>
<polygon fill="#ffffb3" stroke="transparent" points="440,-10 440,-30 460,-30 460,-10 440,-10"/>
<text text-anchor="start" x="463.629" y="-15.4" font-family="sans-serif" font-size="14.00" fill="#000000"> &#160;Declarations</text>
<polygon fill="#8dd3c7" stroke="transparent" points="553,-10 553,-30 573,-30 573,-10 553,-10"/>
<text text-anchor="start" x="576.7251" y="-15.4" font-family="sans-serif" font-size="14.00" fill="#000000"> &#160;Module</text>
<polygon fill="#80b1d3" stroke="transparent" points="639,-10 639,-30 659,-30 659,-10 639,-10"/>
<text text-anchor="start" x="662.7812" y="-15.4" font-family="sans-serif" font-size="14.00" fill="#000000"> &#160;Bootstrap</text>
<polygon fill="#fdb462" stroke="transparent" points="736,-10 736,-30 756,-30 756,-10 736,-10"/>
<text text-anchor="start" x="759.6732" y="-15.4" font-family="sans-serif" font-size="14.00" fill="#000000"> &#160;Providers</text>
<polygon fill="#fb8072" stroke="transparent" points="832,-10 832,-30 852,-30 852,-10 832,-10"/>
<text text-anchor="start" x="855.7258" y="-15.4" font-family="sans-serif" font-size="14.00" fill="#000000"> &#160;Exports</text>
<g id="clust1" class="cluster">
<title>cluster_AppModule</title>
<polygon fill="none" stroke="#000000" stroke-dasharray="1,5" points="8,-70 8,-268 1340,-268 1340,-70 8,-70"/>
</g>
<g id="clust2" class="cluster">
<title>cluster_AppModule_declarations</title>
<polygon fill="none" stroke="#000000" points="1037,-78 1037,-130 1332,-130 1332,-78 1037,-78"/>
</g>
<g id="clust5" class="cluster">
<title>cluster_AppModule_imports</title>
<polygon fill="none" stroke="#000000" points="16,-78 16,-130 1029,-130 1029,-78 16,-78"/>
</g>
<g id="clust7" class="cluster">
<title>cluster_AppModule_bootstrap</title>
<polygon fill="none" stroke="#000000" points="576,-208 576,-260 700,-260 700,-208 576,-208"/>
</g>
<!-- AppComponent -->
<g id="node1" class="node">
<title>AppComponent</title>
<polygon fill="#ffffb3" stroke="#000000" points="1323.9399,-122 1218.0601,-122 1218.0601,-86 1323.9399,-86 1323.9399,-122"/>
<text text-anchor="middle" x="1271" y="-99.8" font-family="Times,serif" font-size="14.00" fill="#000000">AppComponent</text>
</g>
<!-- AppModule -->
<g id="node3" class="node">
<title>AppModule</title>
<polygon fill="#8dd3c7" stroke="#000000" points="679.6571,-187 676.6571,-191 655.6571,-191 652.6571,-187 596.3429,-187 596.3429,-151 679.6571,-151 679.6571,-187"/>
<text text-anchor="middle" x="638" y="-164.8" font-family="Times,serif" font-size="14.00" fill="#000000">AppModule</text>
</g>
<!-- AppComponent&#45;&gt;AppModule -->
<g id="edge1" class="edge">
<title>AppComponent&#45;&gt;AppModule</title>
<path fill="none" stroke="#000000" d="M1271,-122.0109C1271,-144.4852 1271,-180 1271,-180 1271,-180 690.0231,-180 690.0231,-180"/>
<polygon fill="#000000" stroke="#000000" points="690.0232,-176.5001 680.0231,-180 690.0231,-183.5001 690.0232,-176.5001"/>
</g>
<!-- LandingPageComponent -->
<g id="node2" class="node">
<title>LandingPageComponent</title>
<polygon fill="#ffffb3" stroke="#000000" points="1200.7021,-122 1045.2979,-122 1045.2979,-86 1200.7021,-86 1200.7021,-122"/>
<text text-anchor="middle" x="1123" y="-99.8" font-family="Times,serif" font-size="14.00" fill="#000000">LandingPageComponent</text>
</g>
<!-- LandingPageComponent&#45;&gt;AppModule -->
<g id="edge2" class="edge">
<title>LandingPageComponent&#45;&gt;AppModule</title>
<path fill="none" stroke="#000000" d="M1123,-122.1289C1123,-142.5724 1123,-173 1123,-173 1123,-173 689.7706,-173 689.7706,-173"/>
<polygon fill="#000000" stroke="#000000" points="689.7706,-169.5001 679.7706,-173 689.7706,-176.5001 689.7706,-169.5001"/>
</g>
<!-- AppComponent  -->
<g id="node12" class="node">
<title>AppComponent </title>
<polygon fill="#80b1d3" stroke="#000000" points="692.439,-252 583.561,-252 583.561,-216 692.439,-216 692.439,-252"/>
<text text-anchor="middle" x="638" y="-229.8" font-family="Times,serif" font-size="14.00" fill="#000000">AppComponent </text>
</g>
<!-- AppModule&#45;&gt;AppComponent  -->
<g id="edge11" class="edge">
<title>AppModule&#45;&gt;AppComponent </title>
<path fill="none" stroke="#000000" stroke-dasharray="1,5" d="M638,-187.1061C638,-187.1061 638,-205.991 638,-205.991"/>
<polygon fill="#000000" stroke="#000000" points="634.5001,-205.9909 638,-215.991 641.5001,-205.991 634.5001,-205.9909"/>
</g>
<!-- AppRoutingModule -->
<g id="node4" class="node">
<title>AppRoutingModule</title>
<polygon fill="#8dd3c7" stroke="#000000" points="1021.2744,-122 1018.2744,-126 997.2744,-126 994.2744,-122 892.7256,-122 892.7256,-86 1021.2744,-86 1021.2744,-122"/>
<text text-anchor="middle" x="957" y="-99.8" font-family="Times,serif" font-size="14.00" fill="#000000">AppRoutingModule</text>
</g>
<!-- AppRoutingModule&#45;&gt;AppModule -->
<g id="edge3" class="edge">
<title>AppRoutingModule&#45;&gt;AppModule</title>
<path fill="none" stroke="#000000" d="M957,-122.2667C957,-140.5552 957,-166 957,-166 957,-166 689.7037,-166 689.7037,-166"/>
<polygon fill="#000000" stroke="#000000" points="689.7037,-162.5001 679.7037,-166 689.7036,-169.5001 689.7037,-162.5001"/>
</g>
<!-- CalendarModule -->
<g id="node5" class="node">
<title>CalendarModule</title>
<polygon fill="#8dd3c7" stroke="#000000" points="875.0814,-122 872.0814,-126 851.0814,-126 848.0814,-122 764.9186,-122 764.9186,-86 875.0814,-86 875.0814,-122"/>
<text text-anchor="middle" x="820" y="-99.8" font-family="Times,serif" font-size="14.00" fill="#000000">CalendarModule</text>
</g>
<!-- CalendarModule&#45;&gt;AppModule -->
<g id="edge4" class="edge">
<title>CalendarModule&#45;&gt;AppModule</title>
<path fill="none" stroke="#000000" d="M820,-122.0091C820,-138.0494 820,-159 820,-159 820,-159 689.7545,-159 689.7545,-159"/>
<polygon fill="#000000" stroke="#000000" points="689.7545,-155.5001 679.7545,-159 689.7544,-162.5001 689.7545,-155.5001"/>
</g>
<!-- HistoryModule -->
<g id="node6" class="node">
<title>HistoryModule</title>
<polygon fill="#8dd3c7" stroke="#000000" points="746.5438,-122 743.5438,-126 722.5438,-126 719.5438,-122 645.4562,-122 645.4562,-86 746.5438,-86 746.5438,-122"/>
<text text-anchor="middle" x="696" y="-99.8" font-family="Times,serif" font-size="14.00" fill="#000000">HistoryModule</text>
</g>
<!-- HistoryModule&#45;&gt;AppModule -->
<g id="edge5" class="edge">
<title>HistoryModule&#45;&gt;AppModule</title>
<path fill="none" stroke="#000000" d="M662.5284,-122.1061C662.5284,-122.1061 662.5284,-140.991 662.5284,-140.991"/>
<polygon fill="#000000" stroke="#000000" points="659.0285,-140.9909 662.5284,-150.991 666.0285,-140.991 659.0285,-140.9909"/>
</g>
<!-- InboxModule -->
<g id="node7" class="node">
<title>InboxModule</title>
<polygon fill="#8dd3c7" stroke="#000000" points="627.2106,-122 624.2106,-126 603.2106,-126 600.2106,-122 534.7894,-122 534.7894,-86 627.2106,-86 627.2106,-122"/>
<text text-anchor="middle" x="581" y="-99.8" font-family="Times,serif" font-size="14.00" fill="#000000">InboxModule</text>
</g>
<!-- InboxModule&#45;&gt;AppModule -->
<g id="edge6" class="edge">
<title>InboxModule&#45;&gt;AppModule</title>
<path fill="none" stroke="#000000" d="M611.6385,-122.1061C611.6385,-122.1061 611.6385,-140.991 611.6385,-140.991"/>
<polygon fill="#000000" stroke="#000000" points="608.1386,-140.9909 611.6385,-150.991 615.1386,-140.991 608.1386,-140.9909"/>
</g>
<!-- NavbarModule -->
<g id="node8" class="node">
<title>NavbarModule</title>
<polygon fill="#8dd3c7" stroke="#000000" points="517.2465,-122 514.2465,-126 493.2465,-126 490.2465,-122 416.7535,-122 416.7535,-86 517.2465,-86 517.2465,-122"/>
<text text-anchor="middle" x="467" y="-99.8" font-family="Times,serif" font-size="14.00" fill="#000000">NavbarModule</text>
</g>
<!-- NavbarModule&#45;&gt;AppModule -->
<g id="edge7" class="edge">
<title>NavbarModule&#45;&gt;AppModule</title>
<path fill="none" stroke="#000000" d="M467,-122.0091C467,-138.0494 467,-159 467,-159 467,-159 586.1687,-159 586.1687,-159"/>
<polygon fill="#000000" stroke="#000000" points="586.1687,-162.5001 596.1687,-159 586.1687,-155.5001 586.1687,-162.5001"/>
</g>
<!-- NewProposalModule -->
<g id="node9" class="node">
<title>NewProposalModule</title>
<polygon fill="#8dd3c7" stroke="#000000" points="398.4706,-122 395.4706,-126 374.4706,-126 371.4706,-122 263.5294,-122 263.5294,-86 398.4706,-86 398.4706,-122"/>
<text text-anchor="middle" x="331" y="-99.8" font-family="Times,serif" font-size="14.00" fill="#000000">NewProposalModule</text>
</g>
<!-- NewProposalModule&#45;&gt;AppModule -->
<g id="edge8" class="edge">
<title>NewProposalModule&#45;&gt;AppModule</title>
<path fill="none" stroke="#000000" d="M331,-122.2667C331,-140.5552 331,-166 331,-166 331,-166 586.2771,-166 586.2771,-166"/>
<polygon fill="#000000" stroke="#000000" points="586.2771,-169.5001 596.2771,-166 586.2771,-162.5001 586.2771,-169.5001"/>
</g>
<!-- ProfileModule -->
<g id="node10" class="node">
<title>ProfileModule</title>
<polygon fill="#8dd3c7" stroke="#000000" points="245.65,-122 242.65,-126 221.65,-126 218.65,-122 148.35,-122 148.35,-86 245.65,-86 245.65,-122"/>
<text text-anchor="middle" x="197" y="-99.8" font-family="Times,serif" font-size="14.00" fill="#000000">ProfileModule</text>
</g>
<!-- ProfileModule&#45;&gt;AppModule -->
<g id="edge9" class="edge">
<title>ProfileModule&#45;&gt;AppModule</title>
<path fill="none" stroke="#000000" d="M197,-122.1289C197,-142.5724 197,-173 197,-173 197,-173 586.1142,-173 586.1142,-173"/>
<polygon fill="#000000" stroke="#000000" points="586.1142,-176.5001 596.1142,-173 586.1142,-169.5001 586.1142,-176.5001"/>
</g>
<!-- RegisterModule -->
<g id="node11" class="node">
<title>RegisterModule</title>
<polygon fill="#8dd3c7" stroke="#000000" points="130.2022,-122 127.2022,-126 106.2022,-126 103.2022,-122 23.7978,-122 23.7978,-86 130.2022,-86 130.2022,-122"/>
<text text-anchor="middle" x="77" y="-99.8" font-family="Times,serif" font-size="14.00" fill="#000000">RegisterModule</text>
</g>
<!-- RegisterModule&#45;&gt;AppModule -->
<g id="edge10" class="edge">
<title>RegisterModule&#45;&gt;AppModule</title>
<path fill="none" stroke="#000000" d="M77,-122.0109C77,-144.4852 77,-180 77,-180 77,-180 586.2921,-180 586.2921,-180"/>
<polygon fill="#000000" stroke="#000000" points="586.2922,-183.5001 596.2921,-180 586.2921,-176.5001 586.2922,-183.5001"/>
</g>
</g>
</svg>
