<?xml version="1.0" encoding="UTF-8" standalone="no"?>
<!DOCTYPE svg PUBLIC "-//W3C//DTD SVG 1.1//EN"
 "http://www.w3.org/Graphics/SVG/1.1/DTD/svg11.dtd">
<!-- Generated by graphviz version 2.40.1 (20161225.0304)
 -->
<!-- Title: dependencies Pages: 1 -->
<svg width="3584pt" height="428pt"
 viewBox="0.00 0.00 3584.00 428.00" xmlns="http://www.w3.org/2000/svg" xmlns:xlink="http://www.w3.org/1999/xlink">
<g id="graph0" class="graph" transform="scale(1 1) rotate(0) translate(4 424)">
<title>dependencies</title>
<polygon fill="#ffffff" stroke="transparent" points="-4,4 -4,-424 3580,-424 3580,4 -4,4"/>
<text text-anchor="start" x="1767.0091" y="-42.4" font-family="sans-serif" font-weight="bold" font-size="14.00" fill="#000000">Legend</text>
<polygon fill="#ffffb3" stroke="transparent" points="1554,-10 1554,-30 1574,-30 1574,-10 1554,-10"/>
<text text-anchor="start" x="1577.629" y="-15.4" font-family="sans-serif" font-size="14.00" fill="#000000"> &#160;Declarations</text>
<polygon fill="#8dd3c7" stroke="transparent" points="1667,-10 1667,-30 1687,-30 1687,-10 1667,-10"/>
<text text-anchor="start" x="1690.7251" y="-15.4" font-family="sans-serif" font-size="14.00" fill="#000000"> &#160;Module</text>
<polygon fill="#80b1d3" stroke="transparent" points="1753,-10 1753,-30 1773,-30 1773,-10 1753,-10"/>
<text text-anchor="start" x="1776.7812" y="-15.4" font-family="sans-serif" font-size="14.00" fill="#000000"> &#160;Bootstrap</text>
<polygon fill="#fdb462" stroke="transparent" points="1850,-10 1850,-30 1870,-30 1870,-10 1850,-10"/>
<text text-anchor="start" x="1873.6732" y="-15.4" font-family="sans-serif" font-size="14.00" fill="#000000"> &#160;Providers</text>
<polygon fill="#fb8072" stroke="transparent" points="1946,-10 1946,-30 1966,-30 1966,-10 1946,-10"/>
<text text-anchor="start" x="1969.7258" y="-15.4" font-family="sans-serif" font-size="14.00" fill="#000000"> &#160;Exports</text>
<g id="clust1" class="cluster">
<title>cluster_AppModule</title>
<polygon fill="none" stroke="#000000" stroke-dasharray="1,5" points="721,-146 721,-412 2060,-412 2060,-146 721,-146"/>
</g>
<g id="clust2" class="cluster">
<title>cluster_AppModule_declarations</title>
<polygon fill="none" stroke="#000000" points="1757,-222 1757,-274 2052,-274 2052,-222 1757,-222"/>
</g>
<g id="clust5" class="cluster">
<title>cluster_AppModule_imports</title>
<polygon fill="none" stroke="#000000" points="729,-154 729,-274 1749,-274 1749,-154 729,-154"/>
</g>
<g id="clust7" class="cluster">
<title>cluster_AppModule_bootstrap</title>
<polygon fill="none" stroke="#000000" points="1373,-352 1373,-404 1497,-404 1497,-352 1373,-352"/>
</g>
<g id="clust15" class="cluster">
<title>cluster_AuctionModule</title>
<polygon fill="none" stroke="#000000" stroke-dasharray="1,5" points="2552,-146 2552,-214 2890,-214 2890,-146 2552,-146"/>
</g>
<g id="clust16" class="cluster">
<title>cluster_AuctionModule_declarations</title>
<polygon fill="none" stroke="#000000" points="2734,-154 2734,-206 2882,-206 2882,-154 2734,-154"/>
</g>
<g id="clust18" class="cluster">
<title>cluster_AuctionModule_imports</title>
<polygon fill="none" stroke="#000000" points="2560,-154 2560,-206 2726,-206 2726,-154 2560,-154"/>
</g>
<g id="clust28" class="cluster">
<title>cluster_CalendarModule</title>
<polygon fill="none" stroke="#000000" stroke-dasharray="1,5" points="8,-70 8,-138 380,-138 380,-70 8,-70"/>
</g>
<g id="clust29" class="cluster">
<title>cluster_CalendarModule_declarations</title>
<polygon fill="none" stroke="#000000" points="196,-78 196,-130 372,-130 372,-78 196,-78"/>
</g>
<g id="clust31" class="cluster">
<title>cluster_CalendarModule_imports</title>
<polygon fill="none" stroke="#000000" points="16,-78 16,-130 188,-130 188,-78 16,-78"/>
</g>
<g id="clust41" class="cluster">
<title>cluster_DashboardModule</title>
<polygon fill="none" stroke="#000000" stroke-dasharray="1,5" points="2898,-70 2898,-206 3568,-206 3568,-70 2898,-70"/>
</g>
<g id="clust42" class="cluster">
<title>cluster_DashboardModule_declarations</title>
<polygon fill="none" stroke="#000000" points="3096,-78 3096,-130 3560,-130 3560,-78 3096,-78"/>
</g>
<g id="clust46" class="cluster">
<title>cluster_DashboardModule_imports</title>
<polygon fill="none" stroke="#000000" points="2906,-78 2906,-130 3088,-130 3088,-78 2906,-78"/>
</g>
<g id="clust56" class="cluster">
<title>cluster_HistoryModule</title>
<polygon fill="none" stroke="#000000" stroke-dasharray="1,5" points="388,-70 388,-138 740,-138 740,-70 388,-70"/>
</g>
<g id="clust57" class="cluster">
<title>cluster_HistoryModule_declarations</title>
<polygon fill="none" stroke="#000000" points="566,-78 566,-130 732,-130 732,-78 566,-78"/>
</g>
<g id="clust59" class="cluster">
<title>cluster_HistoryModule_imports</title>
<polygon fill="none" stroke="#000000" points="396,-78 396,-130 558,-130 558,-78 396,-78"/>
</g>
<g id="clust69" class="cluster">
<title>cluster_InboxModule</title>
<polygon fill="none" stroke="#000000" stroke-dasharray="1,5" points="748,-70 748,-138 1084,-138 1084,-70 748,-70"/>
</g>
<g id="clust70" class="cluster">
<title>cluster_InboxModule_declarations</title>
<polygon fill="none" stroke="#000000" points="918,-78 918,-130 1076,-130 1076,-78 918,-78"/>
</g>
<g id="clust72" class="cluster">
<title>cluster_InboxModule_imports</title>
<polygon fill="none" stroke="#000000" points="756,-78 756,-130 910,-130 910,-78 756,-78"/>
</g>
<g id="clust94" class="cluster">
<title>cluster_NavbarModule</title>
<polygon fill="none" stroke="#000000" stroke-dasharray="1,5" points="2068,-146 2068,-214 2544,-214 2544,-146 2068,-146"/>
</g>
<g id="clust95" class="cluster">
<title>cluster_NavbarModule_declarations</title>
<polygon fill="none" stroke="#000000" points="2398,-154 2398,-206 2536,-206 2536,-154 2398,-154"/>
</g>
<g id="clust97" class="cluster">
<title>cluster_NavbarModule_imports</title>
<polygon fill="none" stroke="#000000" points="2226,-154 2226,-206 2390,-206 2390,-154 2226,-154"/>
</g>
<g id="clust98" class="cluster">
<title>cluster_NavbarModule_exports</title>
<polygon fill="none" stroke="#000000" points="2076,-154 2076,-206 2218,-206 2218,-154 2076,-154"/>
</g>
<g id="clust101" class="cluster">
<title>cluster_NewProposalModule</title>
<polygon fill="none" stroke="#000000" stroke-dasharray="1,5" points="1092,-70 1092,-138 1512,-138 1512,-70 1092,-70"/>
</g>
<g id="clust102" class="cluster">
<title>cluster_NewProposalModule_declarations</title>
<polygon fill="none" stroke="#000000" points="1304,-78 1304,-130 1504,-130 1504,-78 1304,-78"/>
</g>
<g id="clust104" class="cluster">
<title>cluster_NewProposalModule_imports</title>
<polygon fill="none" stroke="#000000" points="1100,-78 1100,-130 1296,-130 1296,-78 1100,-78"/>
</g>
<g id="clust114" class="cluster">
<title>cluster_ProfileModule</title>
<polygon fill="none" stroke="#000000" stroke-dasharray="1,5" points="1520,-70 1520,-138 1864,-138 1864,-70 1520,-70"/>
</g>
<g id="clust115" class="cluster">
<title>cluster_ProfileModule_declarations</title>
<polygon fill="none" stroke="#000000" points="1694,-78 1694,-130 1856,-130 1856,-78 1694,-78"/>
</g>
<g id="clust117" class="cluster">
<title>cluster_ProfileModule_imports</title>
<polygon fill="none" stroke="#000000" points="1528,-78 1528,-130 1686,-130 1686,-78 1528,-78"/>
</g>
<g id="clust127" class="cluster">
<title>cluster_RegisterModule</title>
<polygon fill="none" stroke="#000000" stroke-dasharray="1,5" points="1872,-70 1872,-138 2236,-138 2236,-70 1872,-70"/>
</g>
<g id="clust128" class="cluster">
<title>cluster_RegisterModule_declarations</title>
<polygon fill="none" stroke="#000000" points="2056,-78 2056,-130 2228,-130 2228,-78 2056,-78"/>
</g>
<g id="clust130" class="cluster">
<title>cluster_RegisterModule_imports</title>
<polygon fill="none" stroke="#000000" points="1880,-78 1880,-130 2048,-130 2048,-78 1880,-78"/>
</g>
<!-- AppComponent -->
<g id="node1" class="node">
<title>AppComponent</title>
<polygon fill="#ffffb3" stroke="#000000" points="2043.9399,-266 1938.0601,-266 1938.0601,-230 2043.9399,-230 2043.9399,-266"/>
<text text-anchor="middle" x="1991" y="-243.8" font-family="Times,serif" font-size="14.00" fill="#000000">AppComponent</text>
</g>
<!-- AppModule -->
<g id="node3" class="node">
<title>AppModule</title>
<polygon fill="#8dd3c7" stroke="#000000" points="1476.6571,-331 1473.6571,-335 1452.6571,-335 1449.6571,-331 1393.3429,-331 1393.3429,-295 1476.6571,-295 1476.6571,-331"/>
<text text-anchor="middle" x="1435" y="-308.8" font-family="Times,serif" font-size="14.00" fill="#000000">AppModule</text>
</g>
<!-- AppComponent&#45;&gt;AppModule -->
<g id="edge1" class="edge">
<title>AppComponent&#45;&gt;AppModule</title>
<path fill="none" stroke="#000000" d="M1991,-266.2479C1991,-289.0179 1991,-325 1991,-325 1991,-325 1486.7904,-325 1486.7904,-325"/>
<polygon fill="#000000" stroke="#000000" points="1486.7904,-321.5001 1476.7904,-325 1486.7903,-328.5001 1486.7904,-321.5001"/>
</g>
<!-- LandingPageComponent -->
<g id="node2" class="node">
<title>LandingPageComponent</title>
<polygon fill="#ffffb3" stroke="#000000" points="1920.7021,-266 1765.2979,-266 1765.2979,-230 1920.7021,-230 1920.7021,-266"/>
<text text-anchor="middle" x="1843" y="-243.8" font-family="Times,serif" font-size="14.00" fill="#000000">LandingPageComponent</text>
</g>
<!-- LandingPageComponent&#45;&gt;AppModule -->
<g id="edge2" class="edge">
<title>LandingPageComponent&#45;&gt;AppModule</title>
<path fill="none" stroke="#000000" d="M1843,-266.2843C1843,-287.3211 1843,-319 1843,-319 1843,-319 1486.7458,-319 1486.7458,-319"/>
<polygon fill="#000000" stroke="#000000" points="1486.7458,-315.5001 1476.7458,-319 1486.7457,-322.5001 1486.7458,-315.5001"/>
</g>
<!-- AppComponent  -->
<g id="node14" class="node">
<title>AppComponent </title>
<polygon fill="#80b1d3" stroke="#000000" points="1489.439,-396 1380.561,-396 1380.561,-360 1489.439,-360 1489.439,-396"/>
<text text-anchor="middle" x="1435" y="-373.8" font-family="Times,serif" font-size="14.00" fill="#000000">AppComponent </text>
</g>
<!-- AppModule&#45;&gt;AppComponent  -->
<g id="edge13" class="edge">
<title>AppModule&#45;&gt;AppComponent </title>
<path fill="none" stroke="#000000" stroke-dasharray="1,5" d="M1435,-331.1061C1435,-331.1061 1435,-349.991 1435,-349.991"/>
<polygon fill="#000000" stroke="#000000" points="1431.5001,-349.9909 1435,-359.991 1438.5001,-349.991 1431.5001,-349.9909"/>
</g>
<!-- AppRoutingModule -->
<g id="node4" class="node">
<title>AppRoutingModule</title>
<polygon fill="#8dd3c7" stroke="#000000" points="1616.2744,-198 1613.2744,-202 1592.2744,-202 1589.2744,-198 1487.7256,-198 1487.7256,-162 1616.2744,-162 1616.2744,-198"/>
<text text-anchor="middle" x="1552" y="-175.8" font-family="Times,serif" font-size="14.00" fill="#000000">AppRoutingModule</text>
</g>
<!-- AppRoutingModule&#45;&gt;AppModule -->
<g id="edge3" class="edge">
<title>AppRoutingModule&#45;&gt;AppModule</title>
<path fill="none" stroke="#000000" d="M1503.5482,-198.1149C1503.5482,-231.8699 1503.5482,-301 1503.5482,-301 1503.5482,-301 1486.8494,-301 1486.8494,-301"/>
<polygon fill="#000000" stroke="#000000" points="1486.8494,-297.5001 1476.8494,-301 1486.8494,-304.5001 1486.8494,-297.5001"/>
</g>
<!-- NavbarModule -->
<g id="node10" class="node">
<title>NavbarModule</title>
<polygon fill="#8dd3c7" stroke="#000000" points="1618.2465,-266 1615.2465,-270 1594.2465,-270 1591.2465,-266 1517.7535,-266 1517.7535,-230 1618.2465,-230 1618.2465,-266"/>
<text text-anchor="middle" x="1568" y="-243.8" font-family="Times,serif" font-size="14.00" fill="#000000">NavbarModule</text>
</g>
<!-- AppRoutingModule&#45;&gt;NavbarModule -->
<g id="edge28" class="edge">
<title>AppRoutingModule&#45;&gt;NavbarModule</title>
<path fill="none" stroke="#000000" d="M1537.3789,-198.2228C1537.3789,-198.2228 1537.3789,-219.7269 1537.3789,-219.7269"/>
<polygon fill="#000000" stroke="#000000" points="1533.879,-219.7269 1537.3789,-229.7269 1540.879,-219.727 1533.879,-219.7269"/>
</g>
<!-- AuctionModule -->
<g id="node5" class="node">
<title>AuctionModule</title>
<polygon fill="#8dd3c7" stroke="#000000" points="1741.1528,-266 1738.1528,-270 1717.1528,-270 1714.1528,-266 1636.8472,-266 1636.8472,-230 1741.1528,-230 1741.1528,-266"/>
<text text-anchor="middle" x="1689" y="-243.8" font-family="Times,serif" font-size="14.00" fill="#000000">AuctionModule</text>
</g>
<!-- AuctionModule&#45;&gt;AppModule -->
<g id="edge4" class="edge">
<title>AuctionModule&#45;&gt;AppModule</title>
<path fill="none" stroke="#000000" d="M1689,-266.1061C1689,-285.3391 1689,-313 1689,-313 1689,-313 1486.6585,-313 1486.6585,-313"/>
<polygon fill="#000000" stroke="#000000" points="1486.6585,-309.5001 1476.6585,-313 1486.6585,-316.5001 1486.6585,-309.5001"/>
</g>
<!-- CalendarModule -->
<g id="node6" class="node">
<title>CalendarModule</title>
<polygon fill="#8dd3c7" stroke="#000000" points="847.0814,-198 844.0814,-202 823.0814,-202 820.0814,-198 736.9186,-198 736.9186,-162 847.0814,-162 847.0814,-198"/>
<text text-anchor="middle" x="792" y="-175.8" font-family="Times,serif" font-size="14.00" fill="#000000">CalendarModule</text>
</g>
<!-- CalendarModule&#45;&gt;AppModule -->
<g id="edge5" class="edge">
<title>CalendarModule&#45;&gt;AppModule</title>
<path fill="none" stroke="#000000" d="M792,-198.0712C792,-236.941 792,-325 792,-325 792,-325 1383.3064,-325 1383.3064,-325"/>
<polygon fill="#000000" stroke="#000000" points="1383.3064,-328.5001 1393.3064,-325 1383.3064,-321.5001 1383.3064,-328.5001"/>
</g>
<!-- HistoryModule -->
<g id="node7" class="node">
<title>HistoryModule</title>
<polygon fill="#8dd3c7" stroke="#000000" points="966.5438,-198 963.5438,-202 942.5438,-202 939.5438,-198 865.4562,-198 865.4562,-162 966.5438,-162 966.5438,-198"/>
<text text-anchor="middle" x="916" y="-175.8" font-family="Times,serif" font-size="14.00" fill="#000000">HistoryModule</text>
</g>
<!-- HistoryModule&#45;&gt;AppModule -->
<g id="edge6" class="edge">
<title>HistoryModule&#45;&gt;AppModule</title>
<path fill="none" stroke="#000000" d="M916,-198.1718C916,-235.8494 916,-319 916,-319 916,-319 1382.9677,-319 1382.9677,-319"/>
<polygon fill="#000000" stroke="#000000" points="1382.9677,-322.5001 1392.9677,-319 1382.9676,-315.5001 1382.9677,-322.5001"/>
</g>
<!-- InboxModule -->
<g id="node8" class="node">
<title>InboxModule</title>
<polygon fill="#8dd3c7" stroke="#000000" points="1077.2106,-198 1074.2106,-202 1053.2106,-202 1050.2106,-198 984.7894,-198 984.7894,-162 1077.2106,-162 1077.2106,-198"/>
<text text-anchor="middle" x="1031" y="-175.8" font-family="Times,serif" font-size="14.00" fill="#000000">InboxModule</text>
</g>
<!-- InboxModule&#45;&gt;AppModule -->
<g id="edge7" class="edge">
<title>InboxModule&#45;&gt;AppModule</title>
<path fill="none" stroke="#000000" d="M1031,-198.2142C1031,-234.6396 1031,-313 1031,-313 1031,-313 1383.2866,-313 1383.2866,-313"/>
<polygon fill="#000000" stroke="#000000" points="1383.2866,-316.5001 1393.2866,-313 1383.2865,-309.5001 1383.2866,-316.5001"/>
</g>
<!-- MaterialModule -->
<g id="node9" class="node">
<title>MaterialModule</title>
<polygon fill="#8dd3c7" stroke="#000000" points="1741.4706,-198 1738.4706,-202 1717.4706,-202 1714.4706,-198 1634.5294,-198 1634.5294,-162 1741.4706,-162 1741.4706,-198"/>
<text text-anchor="middle" x="1688" y="-175.8" font-family="Times,serif" font-size="14.00" fill="#000000">MaterialModule</text>
</g>
<!-- MaterialModule&#45;&gt;AppModule -->
<g id="edge8" class="edge">
<title>MaterialModule&#45;&gt;AppModule</title>
<path fill="none" stroke="#000000" d="M1634.4913,-180C1629.6036,-180 1626.4439,-180 1626.4439,-180 1626.4439,-180 1626.4439,-307 1626.4439,-307 1626.4439,-307 1487.0132,-307 1487.0132,-307"/>
<polygon fill="#000000" stroke="#000000" points="1487.0132,-303.5001 1477.0132,-307 1487.0131,-310.5001 1487.0132,-303.5001"/>
</g>
<!-- MaterialModule&#45;&gt;AuctionModule -->
<g id="edge16" class="edge">
<title>MaterialModule&#45;&gt;AuctionModule</title>
<path fill="none" stroke="#000000" d="M1662.8369,-198.2228C1662.8369,-198.2228 1662.8369,-219.7269 1662.8369,-219.7269"/>
<polygon fill="#000000" stroke="#000000" points="1659.337,-219.7269 1662.8369,-229.7269 1666.337,-219.727 1659.337,-219.7269"/>
</g>
<!-- NavbarModule&#45;&gt;AppModule -->
<g id="edge9" class="edge">
<title>NavbarModule&#45;&gt;AppModule</title>
<path fill="none" stroke="#000000" d="M1517.7507,-248C1483.5474,-248 1444.4579,-248 1444.4579,-248 1444.4579,-248 1444.4579,-284.8939 1444.4579,-284.8939"/>
<polygon fill="#000000" stroke="#000000" points="1440.958,-284.8938 1444.4579,-294.8939 1447.958,-284.8939 1440.958,-284.8938"/>
</g>
<!-- NavbarComponent  -->
<g id="node30" class="node">
<title>NavbarComponent </title>
<polygon fill="#fb8072" stroke="#000000" points="2210.0288,-198 2083.9712,-198 2083.9712,-162 2210.0288,-162 2210.0288,-198"/>
<text text-anchor="middle" x="2147" y="-175.8" font-family="Times,serif" font-size="14.00" fill="#000000">NavbarComponent </text>
</g>
<!-- NavbarModule&#45;&gt;NavbarComponent  -->
<g id="edge30" class="edge">
<title>NavbarModule&#45;&gt;NavbarComponent </title>
<path fill="none" stroke="#000000" stroke-dasharray="5,2" d="M1596.6351,-229.8495C1596.6351,-217.7292 1596.6351,-204 1596.6351,-204 1596.6351,-204 2147,-204 2147,-204 2147,-204 2147,-203.419 2147,-203.419"/>
<polygon fill="#000000" stroke="#000000" points="2150.5002,-208.1902 2147,-198.1903 2143.5002,-208.1903 2150.5002,-208.1902"/>
</g>
<!-- NewProposalModule -->
<g id="node11" class="node">
<title>NewProposalModule</title>
<polygon fill="#8dd3c7" stroke="#000000" points="1230.4706,-198 1227.4706,-202 1206.4706,-202 1203.4706,-198 1095.5294,-198 1095.5294,-162 1230.4706,-162 1230.4706,-198"/>
<text text-anchor="middle" x="1163" y="-175.8" font-family="Times,serif" font-size="14.00" fill="#000000">NewProposalModule</text>
</g>
<!-- NewProposalModule&#45;&gt;AppModule -->
<g id="edge10" class="edge">
<title>NewProposalModule&#45;&gt;AppModule</title>
<path fill="none" stroke="#000000" d="M1163,-198.196C1163,-233.3126 1163,-307 1163,-307 1163,-307 1383.0961,-307 1383.0961,-307"/>
<polygon fill="#000000" stroke="#000000" points="1383.0961,-310.5001 1393.0961,-307 1383.0961,-303.5001 1383.0961,-310.5001"/>
</g>
<!-- ProfileModule -->
<g id="node12" class="node">
<title>ProfileModule</title>
<polygon fill="#8dd3c7" stroke="#000000" points="1345.65,-198 1342.65,-202 1321.65,-202 1318.65,-198 1248.35,-198 1248.35,-162 1345.65,-162 1345.65,-198"/>
<text text-anchor="middle" x="1297" y="-175.8" font-family="Times,serif" font-size="14.00" fill="#000000">ProfileModule</text>
</g>
<!-- ProfileModule&#45;&gt;AppModule -->
<g id="edge11" class="edge">
<title>ProfileModule&#45;&gt;AppModule</title>
<path fill="none" stroke="#000000" d="M1297,-198.1149C1297,-231.8699 1297,-301 1297,-301 1297,-301 1383.221,-301 1383.221,-301"/>
<polygon fill="#000000" stroke="#000000" points="1383.221,-304.5001 1393.221,-301 1383.2209,-297.5001 1383.221,-304.5001"/>
</g>
<!-- RegisterModule -->
<g id="node13" class="node">
<title>RegisterModule</title>
<polygon fill="#8dd3c7" stroke="#000000" points="1470.2022,-198 1467.2022,-202 1446.2022,-202 1443.2022,-198 1363.7978,-198 1363.7978,-162 1470.2022,-162 1470.2022,-198"/>
<text text-anchor="middle" x="1417" y="-175.8" font-family="Times,serif" font-size="14.00" fill="#000000">RegisterModule</text>
</g>
<!-- RegisterModule&#45;&gt;AppModule -->
<g id="edge12" class="edge">
<title>RegisterModule&#45;&gt;AppModule</title>
<path fill="none" stroke="#000000" d="M1418.8149,-198.2142C1418.8149,-198.2142 1418.8149,-284.579 1418.8149,-284.579"/>
<polygon fill="#000000" stroke="#000000" points="1415.315,-284.5789 1418.8149,-294.579 1422.315,-284.579 1415.315,-284.5789"/>
</g>
<!-- BidFormComponent -->
<g id="node15" class="node">
<title>BidFormComponent</title>
<polygon fill="#ffffb3" stroke="#000000" points="2873.8934,-198 2742.1066,-198 2742.1066,-162 2873.8934,-162 2873.8934,-198"/>
<text text-anchor="middle" x="2808" y="-175.8" font-family="Times,serif" font-size="14.00" fill="#000000">BidFormComponent</text>
</g>
<!-- BidFormComponent&#45;&gt;AuctionModule -->
<g id="edge14" class="edge">
<title>BidFormComponent&#45;&gt;AuctionModule</title>
<path fill="none" stroke="#000000" d="M2808,-198.0439C2808,-210.5633 2808,-225 2808,-225 2808,-225 1715.1631,-225 1715.1631,-225 1715.1631,-225 1715.1631,-225.4878 1715.1631,-225.4878"/>
<polygon fill="#000000" stroke="#000000" points="1711.6633,-219.8776 1715.1631,-229.8777 1718.6633,-219.8778 1711.6633,-219.8776"/>
</g>
<!-- AuctionRoutingModule -->
<g id="node16" class="node">
<title>AuctionRoutingModule</title>
<polygon fill="#8dd3c7" stroke="#000000" points="2717.7702,-198 2714.7702,-202 2693.7702,-202 2690.7702,-198 2568.2298,-198 2568.2298,-162 2717.7702,-162 2717.7702,-198"/>
<text text-anchor="middle" x="2643" y="-175.8" font-family="Times,serif" font-size="14.00" fill="#000000">AuctionRoutingModule</text>
</g>
<!-- AuctionRoutingModule&#45;&gt;AuctionModule -->
<g id="edge15" class="edge">
<title>AuctionRoutingModule&#45;&gt;AuctionModule</title>
<path fill="none" stroke="#000000" d="M2643,-198.1274C2643,-208.7109 2643,-220 2643,-220 2643,-220 1689,-220 1689,-220 1689,-220 1689,-220.9793 1689,-220.9793"/>
<polygon fill="#000000" stroke="#000000" points="1685.5001,-219.793 1689,-229.793 1692.5001,-219.7931 1685.5001,-219.793"/>
</g>
<!-- CalendarPageComponent -->
<g id="node17" class="node">
<title>CalendarPageComponent</title>
<polygon fill="#ffffb3" stroke="#000000" points="363.5758,-122 204.4242,-122 204.4242,-86 363.5758,-86 363.5758,-122"/>
<text text-anchor="middle" x="284" y="-99.8" font-family="Times,serif" font-size="14.00" fill="#000000">CalendarPageComponent</text>
</g>
<!-- CalendarPageComponent&#45;&gt;CalendarModule -->
<g id="edge17" class="edge">
<title>CalendarPageComponent&#45;&gt;CalendarModule</title>
<path fill="none" stroke="#000000" d="M284,-122.0267C284,-142.7672 284,-174 284,-174 284,-174 726.6681,-174 726.6681,-174"/>
<polygon fill="#000000" stroke="#000000" points="726.6681,-177.5001 736.6681,-174 726.668,-170.5001 726.6681,-177.5001"/>
</g>
<!-- CalendarRoutingModule -->
<g id="node18" class="node">
<title>CalendarRoutingModule</title>
<polygon fill="#8dd3c7" stroke="#000000" points="179.6993,-122 176.6993,-126 155.6993,-126 152.6993,-122 24.3007,-122 24.3007,-86 179.6993,-86 179.6993,-122"/>
<text text-anchor="middle" x="102" y="-99.8" font-family="Times,serif" font-size="14.00" fill="#000000">CalendarRoutingModule</text>
</g>
<!-- CalendarRoutingModule&#45;&gt;CalendarModule -->
<g id="edge18" class="edge">
<title>CalendarRoutingModule&#45;&gt;CalendarModule</title>
<path fill="none" stroke="#000000" d="M102,-122.1985C102,-146.3563 102,-186 102,-186 102,-186 726.7008,-186 726.7008,-186"/>
<polygon fill="#000000" stroke="#000000" points="726.7008,-189.5001 736.7008,-186 726.7007,-182.5001 726.7008,-189.5001"/>
</g>
<!-- AuctionsListComponent -->
<g id="node19" class="node">
<title>AuctionsListComponent</title>
<polygon fill="#ffffb3" stroke="#000000" points="3551.6582,-122 3398.3418,-122 3398.3418,-86 3551.6582,-86 3551.6582,-122"/>
<text text-anchor="middle" x="3475" y="-99.8" font-family="Times,serif" font-size="14.00" fill="#000000">AuctionsListComponent</text>
</g>
<!-- DashboardModule -->
<g id="node22" class="node">
<title>DashboardModule</title>
<polygon fill="#8dd3c7" stroke="#000000" points="3295.191,-198 3292.191,-202 3271.191,-202 3268.191,-198 3174.809,-198 3174.809,-162 3295.191,-162 3295.191,-198"/>
<text text-anchor="middle" x="3235" y="-175.8" font-family="Times,serif" font-size="14.00" fill="#000000">DashboardModule</text>
</g>
<!-- AuctionsListComponent&#45;&gt;DashboardModule -->
<g id="edge19" class="edge">
<title>AuctionsListComponent&#45;&gt;DashboardModule</title>
<path fill="none" stroke="#000000" d="M3475,-122.0109C3475,-144.4852 3475,-180 3475,-180 3475,-180 3305.2523,-180 3305.2523,-180"/>
<polygon fill="#000000" stroke="#000000" points="3305.2524,-176.5001 3295.2523,-180 3305.2523,-183.5001 3305.2524,-176.5001"/>
</g>
<!-- DashboardComponent -->
<g id="node20" class="node">
<title>DashboardComponent</title>
<polygon fill="#ffffb3" stroke="#000000" points="3379.9734,-122 3238.0266,-122 3238.0266,-86 3379.9734,-86 3379.9734,-122"/>
<text text-anchor="middle" x="3309" y="-99.8" font-family="Times,serif" font-size="14.00" fill="#000000">DashboardComponent</text>
</g>
<!-- DashboardComponent&#45;&gt;DashboardModule -->
<g id="edge20" class="edge">
<title>DashboardComponent&#45;&gt;DashboardModule</title>
<path fill="none" stroke="#000000" d="M3266.5544,-122.0109C3266.5544,-122.0109 3266.5544,-151.855 3266.5544,-151.855"/>
<polygon fill="#000000" stroke="#000000" points="3263.0544,-151.8549 3266.5544,-161.855 3270.0544,-151.855 3263.0544,-151.8549"/>
</g>
<!-- DetailComponent -->
<g id="node21" class="node">
<title>DetailComponent</title>
<polygon fill="#ffffb3" stroke="#000000" points="3219.5409,-122 3104.4591,-122 3104.4591,-86 3219.5409,-86 3219.5409,-122"/>
<text text-anchor="middle" x="3162" y="-99.8" font-family="Times,serif" font-size="14.00" fill="#000000">DetailComponent</text>
</g>
<!-- DetailComponent&#45;&gt;DashboardModule -->
<g id="edge21" class="edge">
<title>DetailComponent&#45;&gt;DashboardModule</title>
<path fill="none" stroke="#000000" d="M3197.3373,-122.0109C3197.3373,-122.0109 3197.3373,-151.855 3197.3373,-151.855"/>
<polygon fill="#000000" stroke="#000000" points="3193.8374,-151.8549 3197.3373,-161.855 3200.8374,-151.855 3193.8374,-151.8549"/>
</g>
<!-- DashboardRoutingModule -->
<g id="node23" class="node">
<title>DashboardRoutingModule</title>
<polygon fill="#8dd3c7" stroke="#000000" points="3079.8089,-122 3076.8089,-126 3055.8089,-126 3052.8089,-122 2914.1911,-122 2914.1911,-86 3079.8089,-86 3079.8089,-122"/>
<text text-anchor="middle" x="2997" y="-99.8" font-family="Times,serif" font-size="14.00" fill="#000000">DashboardRoutingModule</text>
</g>
<!-- DashboardRoutingModule&#45;&gt;DashboardModule -->
<g id="edge22" class="edge">
<title>DashboardRoutingModule&#45;&gt;DashboardModule</title>
<path fill="none" stroke="#000000" d="M2997,-122.0109C2997,-144.4852 2997,-180 2997,-180 2997,-180 3164.6349,-180 3164.6349,-180"/>
<polygon fill="#000000" stroke="#000000" points="3164.6349,-183.5001 3174.6349,-180 3164.6348,-176.5001 3164.6349,-183.5001"/>
</g>
<!-- HistoryPageComponent -->
<g id="node24" class="node">
<title>HistoryPageComponent</title>
<polygon fill="#ffffb3" stroke="#000000" points="724.0379,-122 573.9621,-122 573.9621,-86 724.0379,-86 724.0379,-122"/>
<text text-anchor="middle" x="649" y="-99.8" font-family="Times,serif" font-size="14.00" fill="#000000">HistoryPageComponent</text>
</g>
<!-- HistoryPageComponent&#45;&gt;HistoryModule -->
<g id="edge23" class="edge">
<title>HistoryPageComponent&#45;&gt;HistoryModule</title>
<path fill="none" stroke="#000000" d="M649,-122.0511C649,-136.373 649,-154 649,-154 649,-154 883.4464,-154 883.4464,-154 883.4464,-154 883.4464,-154.7942 883.4464,-154.7942"/>
<polygon fill="#000000" stroke="#000000" points="879.9465,-151.9421 883.4464,-161.9421 886.9465,-151.9422 879.9465,-151.9421"/>
</g>
<!-- HistoryRoutingModule -->
<g id="node25" class="node">
<title>HistoryRoutingModule</title>
<polygon fill="#8dd3c7" stroke="#000000" points="550.161,-122 547.161,-126 526.161,-126 523.161,-122 403.839,-122 403.839,-86 550.161,-86 550.161,-122"/>
<text text-anchor="middle" x="477" y="-99.8" font-family="Times,serif" font-size="14.00" fill="#000000">HistoryRoutingModule</text>
</g>
<!-- HistoryRoutingModule&#45;&gt;HistoryModule -->
<g id="edge24" class="edge">
<title>HistoryRoutingModule&#45;&gt;HistoryModule</title>
<path fill="none" stroke="#000000" d="M477,-122.2819C477,-137.9478 477,-158 477,-158 477,-158 874.3375,-158 874.3375,-158 874.3375,-158 874.3375,-158.3832 874.3375,-158.3832"/>
<polygon fill="#000000" stroke="#000000" points="870.8378,-151.832 874.3375,-161.8321 877.8378,-151.8322 870.8378,-151.832"/>
</g>
<!-- InboxPageComponent -->
<g id="node26" class="node">
<title>InboxPageComponent</title>
<polygon fill="#ffffb3" stroke="#000000" points="1067.7049,-122 926.2951,-122 926.2951,-86 1067.7049,-86 1067.7049,-122"/>
<text text-anchor="middle" x="997" y="-99.8" font-family="Times,serif" font-size="14.00" fill="#000000">InboxPageComponent</text>
</g>
<!-- InboxPageComponent&#45;&gt;InboxModule -->
<g id="edge25" class="edge">
<title>InboxPageComponent&#45;&gt;InboxModule</title>
<path fill="none" stroke="#000000" d="M1040.0332,-122.0109C1040.0332,-122.0109 1040.0332,-151.855 1040.0332,-151.855"/>
<polygon fill="#000000" stroke="#000000" points="1036.5333,-151.8549 1040.0332,-161.855 1043.5333,-151.855 1036.5333,-151.8549"/>
</g>
<!-- InboxRoutingModule -->
<g id="node27" class="node">
<title>InboxRoutingModule</title>
<polygon fill="#8dd3c7" stroke="#000000" points="901.8286,-122 898.8286,-126 877.8286,-126 874.8286,-122 764.1714,-122 764.1714,-86 901.8286,-86 901.8286,-122"/>
<text text-anchor="middle" x="833" y="-99.8" font-family="Times,serif" font-size="14.00" fill="#000000">InboxRoutingModule</text>
</g>
<!-- InboxRoutingModule&#45;&gt;InboxModule -->
<g id="edge26" class="edge">
<title>InboxRoutingModule&#45;&gt;InboxModule</title>
<path fill="none" stroke="#000000" d="M892.5552,-122.0439C892.5552,-134.5633 892.5552,-149 892.5552,-149 892.5552,-149 1012.464,-149 1012.464,-149 1012.464,-149 1012.464,-151.9672 1012.464,-151.9672"/>
<polygon fill="#000000" stroke="#000000" points="1008.9641,-151.9671 1012.464,-161.9672 1015.9641,-151.9672 1008.9641,-151.9671"/>
</g>
<!-- NavbarComponent -->
<g id="node28" class="node">
<title>NavbarComponent</title>
<polygon fill="#ffffb3" stroke="#000000" points="2528.0297,-198 2405.9703,-198 2405.9703,-162 2528.0297,-162 2528.0297,-198"/>
<text text-anchor="middle" x="2467" y="-175.8" font-family="Times,serif" font-size="14.00" fill="#000000">NavbarComponent</text>
</g>
<!-- NavbarComponent&#45;&gt;NavbarModule -->
<g id="edge27" class="edge">
<title>NavbarComponent&#45;&gt;NavbarModule</title>
<path fill="none" stroke="#000000" d="M2467,-198.1944C2467,-206.2782 2467,-214 2467,-214 2467,-214 1576.883,-214 1576.883,-214 1576.883,-214 1576.883,-219.8056 1576.883,-219.8056"/>
<polygon fill="#000000" stroke="#000000" points="1573.3831,-219.8055 1576.883,-229.8056 1580.3831,-219.8056 1573.3831,-219.8055"/>
</g>
<!-- NavbarMaterialModule -->
<g id="node29" class="node">
<title>NavbarMaterialModule</title>
<polygon fill="#8dd3c7" stroke="#000000" points="2382.1671,-198 2379.1671,-202 2358.1671,-202 2355.1671,-198 2233.8329,-198 2233.8329,-162 2382.1671,-162 2382.1671,-198"/>
<text text-anchor="middle" x="2308" y="-175.8" font-family="Times,serif" font-size="14.00" fill="#000000">NavbarMaterialModule</text>
</g>
<!-- NavbarMaterialModule&#45;&gt;NavbarModule -->
<g id="edge29" class="edge">
<title>NavbarMaterialModule&#45;&gt;NavbarModule</title>
<path fill="none" stroke="#000000" d="M2308,-198.2015C2308,-204.028 2308,-209 2308,-209 2308,-209 1557.131,-209 1557.131,-209 1557.131,-209 1557.131,-219.8701 1557.131,-219.8701"/>
<polygon fill="#000000" stroke="#000000" points="1553.6311,-219.8701 1557.131,-229.8701 1560.6311,-219.8701 1553.6311,-219.8701"/>
</g>
<!-- NewProposalPageComponent -->
<g id="node31" class="node">
<title>NewProposalPageComponent</title>
<polygon fill="#ffffb3" stroke="#000000" points="1495.965,-122 1312.035,-122 1312.035,-86 1495.965,-86 1495.965,-122"/>
<text text-anchor="middle" x="1404" y="-99.8" font-family="Times,serif" font-size="14.00" fill="#000000">NewProposalPageComponent</text>
</g>
<!-- NewProposalPageComponent&#45;&gt;NewProposalModule -->
<g id="edge31" class="edge">
<title>NewProposalPageComponent&#45;&gt;NewProposalModule</title>
<path fill="none" stroke="#000000" d="M1320.4693,-122.1223C1320.4693,-124.9729 1320.4693,-127 1320.4693,-127 1320.4693,-127 1189.6421,-127 1189.6421,-127 1189.6421,-127 1189.6421,-151.7604 1189.6421,-151.7604"/>
<polygon fill="#000000" stroke="#000000" points="1186.1422,-151.7604 1189.6421,-161.7604 1193.1422,-151.7604 1186.1422,-151.7604"/>
</g>
<!-- NewProposalRoutingModule -->
<g id="node32" class="node">
<title>NewProposalRoutingModule</title>
<polygon fill="#8dd3c7" stroke="#000000" points="1288.0884,-122 1285.0884,-126 1264.0884,-126 1261.0884,-122 1107.9116,-122 1107.9116,-86 1288.0884,-86 1288.0884,-122"/>
<text text-anchor="middle" x="1198" y="-99.8" font-family="Times,serif" font-size="14.00" fill="#000000">NewProposalRoutingModule</text>
</g>
<!-- NewProposalRoutingModule&#45;&gt;NewProposalModule -->
<g id="edge32" class="edge">
<title>NewProposalRoutingModule&#45;&gt;NewProposalModule</title>
<path fill="none" stroke="#000000" d="M1148.799,-122.0109C1148.799,-122.0109 1148.799,-151.855 1148.799,-151.855"/>
<polygon fill="#000000" stroke="#000000" points="1145.2991,-151.8549 1148.799,-161.855 1152.2991,-151.855 1145.2991,-151.8549"/>
</g>
<!-- ProfilePageComponent -->
<g id="node33" class="node">
<title>ProfilePageComponent</title>
<polygon fill="#ffffb3" stroke="#000000" points="1848.1442,-122 1701.8558,-122 1701.8558,-86 1848.1442,-86 1848.1442,-122"/>
<text text-anchor="middle" x="1775" y="-99.8" font-family="Times,serif" font-size="14.00" fill="#000000">ProfilePageComponent</text>
</g>
<!-- ProfilePageComponent&#45;&gt;ProfileModule -->
<g id="edge33" class="edge">
<title>ProfilePageComponent&#45;&gt;ProfileModule</title>
<path fill="none" stroke="#000000" d="M1721.5817,-122.2434C1721.5817,-129.4297 1721.5817,-136 1721.5817,-136 1721.5817,-136 1337.3729,-136 1337.3729,-136 1337.3729,-136 1337.3729,-151.8495 1337.3729,-151.8495"/>
<polygon fill="#000000" stroke="#000000" points="1333.873,-151.8494 1337.3729,-161.8495 1340.873,-151.8495 1333.873,-151.8494"/>
</g>
<!-- ProfileRoutingModule -->
<g id="node34" class="node">
<title>ProfileRoutingModule</title>
<polygon fill="#8dd3c7" stroke="#000000" points="1678.2674,-122 1675.2674,-126 1654.2674,-126 1651.2674,-122 1535.7326,-122 1535.7326,-86 1678.2674,-86 1678.2674,-122"/>
<text text-anchor="middle" x="1607" y="-99.8" font-family="Times,serif" font-size="14.00" fill="#000000">ProfileRoutingModule</text>
</g>
<!-- ProfileRoutingModule&#45;&gt;ProfileModule -->
<g id="edge34" class="edge">
<title>ProfileRoutingModule&#45;&gt;ProfileModule</title>
<path fill="none" stroke="#000000" d="M1576.0017,-122.1592C1576.0017,-127.0433 1576.0017,-131 1576.0017,-131 1576.0017,-131 1328.9211,-131 1328.9211,-131 1328.9211,-131 1328.9211,-151.7542 1328.9211,-151.7542"/>
<polygon fill="#000000" stroke="#000000" points="1325.4212,-151.7542 1328.9211,-161.7542 1332.4212,-151.7542 1325.4212,-151.7542"/>
</g>
<!-- RegisterPageComponent -->
<g id="node35" class="node">
<title>RegisterPageComponent</title>
<polygon fill="#ffffb3" stroke="#000000" points="2219.6965,-122 2064.3035,-122 2064.3035,-86 2219.6965,-86 2219.6965,-122"/>
<text text-anchor="middle" x="2142" y="-99.8" font-family="Times,serif" font-size="14.00" fill="#000000">RegisterPageComponent</text>
</g>
<!-- RegisterPageComponent&#45;&gt;RegisterModule -->
<g id="edge35" class="edge">
<title>RegisterPageComponent&#45;&gt;RegisterModule</title>
<path fill="none" stroke="#000000" d="M2074.1937,-122.1025C2074.1937,-133.0859 2074.1937,-145 2074.1937,-145 2074.1937,-145 1434.7003,-145 1434.7003,-145 1434.7003,-145 1434.7003,-151.68 1434.7003,-151.68"/>
<polygon fill="#000000" stroke="#000000" points="1431.2004,-151.6799 1434.7003,-161.68 1438.2004,-151.68 1431.2004,-151.6799"/>
</g>
<!-- RegisterRoutingModule -->
<g id="node36" class="node">
<title>RegisterRoutingModule</title>
<polygon fill="#8dd3c7" stroke="#000000" points="2039.8201,-122 2036.8201,-126 2015.8201,-126 2012.8201,-122 1888.1799,-122 1888.1799,-86 2039.8201,-86 2039.8201,-122"/>
<text text-anchor="middle" x="1964" y="-99.8" font-family="Times,serif" font-size="14.00" fill="#000000">RegisterRoutingModule</text>
</g>
<!-- RegisterRoutingModule&#45;&gt;RegisterModule -->
<g id="edge36" class="edge">
<title>RegisterRoutingModule&#45;&gt;RegisterModule</title>
<path fill="none" stroke="#000000" d="M1904.4706,-122.4218C1904.4706,-131.2791 1904.4706,-140 1904.4706,-140 1904.4706,-140 1399.2997,-140 1399.2997,-140 1399.2997,-140 1399.2997,-151.8726 1399.2997,-151.8726"/>
<polygon fill="#000000" stroke="#000000" points="1395.7998,-151.8725 1399.2997,-161.8726 1402.7998,-151.8726 1395.7998,-151.8725"/>
</g>
</g>
</svg>
