<?xml version="1.0" encoding="UTF-8" standalone="no"?>
<!DOCTYPE svg PUBLIC "-//W3C//DTD SVG 1.1//EN"
 "http://www.w3.org/Graphics/SVG/1.1/DTD/svg11.dtd">
<!-- Generated by graphviz version 2.40.1 (20161225.0304)
 -->
<!-- Title: dependencies Pages: 1 -->
<svg width="504pt" height="211pt"
 viewBox="0.00 0.00 504.00 211.00" xmlns="http://www.w3.org/2000/svg" xmlns:xlink="http://www.w3.org/1999/xlink">
<g id="graph0" class="graph" transform="scale(1 1) rotate(0) translate(4 207)">
<title>dependencies</title>
<polygon fill="#ffffff" stroke="transparent" points="-4,4 -4,-207 500,-207 500,4 -4,4"/>
<text text-anchor="start" x="227.0091" y="-42.4" font-family="sans-serif" font-weight="bold" font-size="14.00" fill="#000000">Legend</text>
<polygon fill="#ffffb3" stroke="transparent" points="14,-10 14,-30 34,-30 34,-10 14,-10"/>
<text text-anchor="start" x="37.629" y="-15.4" font-family="sans-serif" font-size="14.00" fill="#000000"> &#160;Declarations</text>
<polygon fill="#8dd3c7" stroke="transparent" points="127,-10 127,-30 147,-30 147,-10 127,-10"/>
<text text-anchor="start" x="150.7251" y="-15.4" font-family="sans-serif" font-size="14.00" fill="#000000"> &#160;Module</text>
<polygon fill="#80b1d3" stroke="transparent" points="213,-10 213,-30 233,-30 233,-10 213,-10"/>
<text text-anchor="start" x="236.7812" y="-15.4" font-family="sans-serif" font-size="14.00" fill="#000000"> &#160;Bootstrap</text>
<polygon fill="#fdb462" stroke="transparent" points="310,-10 310,-30 330,-30 330,-10 310,-10"/>
<text text-anchor="start" x="333.6732" y="-15.4" font-family="sans-serif" font-size="14.00" fill="#000000"> &#160;Providers</text>
<polygon fill="#fb8072" stroke="transparent" points="406,-10 406,-30 426,-30 426,-10 406,-10"/>
<text text-anchor="start" x="429.7258" y="-15.4" font-family="sans-serif" font-size="14.00" fill="#000000"> &#160;Exports</text>
<g id="clust1" class="cluster">
<title>cluster_AuctionModule</title>
<polygon fill="none" stroke="#000000" stroke-dasharray="1,5" points="17,-70 17,-195 479,-195 479,-70 17,-70"/>
</g>
<g id="clust2" class="cluster">
<title>cluster_AuctionModule_declarations</title>
<polygon fill="none" stroke="#000000" points="323,-78 323,-130 471,-130 471,-78 323,-78"/>
</g>
<g id="clust4" class="cluster">
<title>cluster_AuctionModule_imports</title>
<polygon fill="none" stroke="#000000" points="25,-78 25,-130 315,-130 315,-78 25,-78"/>
</g>
<!-- BidFormComponent -->
<g id="node1" class="node">
<title>BidFormComponent</title>
<polygon fill="#ffffb3" stroke="#000000" points="462.8934,-122 331.1066,-122 331.1066,-86 462.8934,-86 462.8934,-122"/>
<text text-anchor="middle" x="397" y="-99.8" font-family="Times,serif" font-size="14.00" fill="#000000">BidFormComponent</text>
</g>
<!-- AuctionModule -->
<g id="node2" class="node">
<title>AuctionModule</title>
<polygon fill="#8dd3c7" stroke="#000000" points="284.1528,-187 281.1528,-191 260.1528,-191 257.1528,-187 179.8472,-187 179.8472,-151 284.1528,-151 284.1528,-187"/>
<text text-anchor="middle" x="232" y="-164.8" font-family="Times,serif" font-size="14.00" fill="#000000">AuctionModule</text>
</g>
<!-- BidFormComponent&#45;&gt;AuctionModule -->
<g id="edge1" class="edge">
<title>BidFormComponent&#45;&gt;AuctionModule</title>
<path fill="none" stroke="#000000" d="M397,-122.1061C397,-141.3391 397,-169 397,-169 397,-169 294.207,-169 294.207,-169"/>
<polygon fill="#000000" stroke="#000000" points="294.2071,-165.5001 284.207,-169 294.207,-172.5001 294.2071,-165.5001"/>
</g>
<!-- AuctionRoutingModule -->
<g id="node3" class="node">
<title>AuctionRoutingModule</title>
<polygon fill="#8dd3c7" stroke="#000000" points="306.7702,-122 303.7702,-126 282.7702,-126 279.7702,-122 157.2298,-122 157.2298,-86 306.7702,-86 306.7702,-122"/>
<text text-anchor="middle" x="232" y="-99.8" font-family="Times,serif" font-size="14.00" fill="#000000">AuctionRoutingModule</text>
</g>
<!-- AuctionRoutingModule&#45;&gt;AuctionModule -->
<g id="edge2" class="edge">
<title>AuctionRoutingModule&#45;&gt;AuctionModule</title>
<path fill="none" stroke="#000000" d="M232,-122.1061C232,-122.1061 232,-140.991 232,-140.991"/>
<polygon fill="#000000" stroke="#000000" points="228.5001,-140.9909 232,-150.991 235.5001,-140.991 228.5001,-140.9909"/>
</g>
<!-- MaterialModule -->
<g id="node4" class="node">
<title>MaterialModule</title>
<polygon fill="#8dd3c7" stroke="#000000" points="139.4706,-122 136.4706,-126 115.4706,-126 112.4706,-122 32.5294,-122 32.5294,-86 139.4706,-86 139.4706,-122"/>
<text text-anchor="middle" x="86" y="-99.8" font-family="Times,serif" font-size="14.00" fill="#000000">MaterialModule</text>
</g>
<!-- MaterialModule&#45;&gt;AuctionModule -->
<g id="edge3" class="edge">
<title>MaterialModule&#45;&gt;AuctionModule</title>
<path fill="none" stroke="#000000" d="M86,-122.1061C86,-141.3391 86,-169 86,-169 86,-169 169.703,-169 169.703,-169"/>
<polygon fill="#000000" stroke="#000000" points="169.7031,-172.5001 179.703,-169 169.703,-165.5001 169.7031,-172.5001"/>
</g>
</g>
</svg>
