<?xml version="1.0" encoding="UTF-8" standalone="no"?>
<!DOCTYPE svg PUBLIC "-//W3C//DTD SVG 1.1//EN"
 "http://www.w3.org/Graphics/SVG/1.1/DTD/svg11.dtd">
<!-- Generated by graphviz version 2.40.1 (20161225.0304)
 -->
<!-- Title: dependencies Pages: 1 -->
<svg width="504pt" height="211pt"
 viewBox="0.00 0.00 504.00 211.00" xmlns="http://www.w3.org/2000/svg" xmlns:xlink="http://www.w3.org/1999/xlink">
<g id="graph0" class="graph" transform="scale(1 1) rotate(0) translate(4 207)">
<title>dependencies</title>
<polygon fill="#ffffff" stroke="transparent" points="-4,4 -4,-207 500,-207 500,4 -4,4"/>
<text text-anchor="start" x="227.0091" y="-42.4" font-family="sans-serif" font-weight="bold" font-size="14.00" fill="#000000">Legend</text>
<polygon fill="#ffffb3" stroke="transparent" points="14,-10 14,-30 34,-30 34,-10 14,-10"/>
<text text-anchor="start" x="37.629" y="-15.4" font-family="sans-serif" font-size="14.00" fill="#000000"> &#160;Declarations</text>
<polygon fill="#8dd3c7" stroke="transparent" points="127,-10 127,-30 147,-30 147,-10 127,-10"/>
<text text-anchor="start" x="150.7251" y="-15.4" font-family="sans-serif" font-size="14.00" fill="#000000"> &#160;Module</text>
<polygon fill="#80b1d3" stroke="transparent" points="213,-10 213,-30 233,-30 233,-10 213,-10"/>
<text text-anchor="start" x="236.7812" y="-15.4" font-family="sans-serif" font-size="14.00" fill="#000000"> &#160;Bootstrap</text>
<polygon fill="#fdb462" stroke="transparent" points="310,-10 310,-30 330,-30 330,-10 310,-10"/>
<text text-anchor="start" x="333.6732" y="-15.4" font-family="sans-serif" font-size="14.00" fill="#000000"> &#160;Providers</text>
<polygon fill="#fb8072" stroke="transparent" points="406,-10 406,-30 426,-30 426,-10 406,-10"/>
<text text-anchor="start" x="429.7258" y="-15.4" font-family="sans-serif" font-size="14.00" fill="#000000"> &#160;Exports</text>
<g id="clust1" class="cluster">
<title>cluster_HistoryModule</title>
<polygon fill="none" stroke="#000000" stroke-dasharray="1,5" points="72,-70 72,-195 424,-195 424,-70 72,-70"/>
</g>
<g id="clust2" class="cluster">
<title>cluster_HistoryModule_declarations</title>
<polygon fill="none" stroke="#000000" points="250,-78 250,-130 416,-130 416,-78 250,-78"/>
</g>
<g id="clust4" class="cluster">
<title>cluster_HistoryModule_imports</title>
<polygon fill="none" stroke="#000000" points="80,-78 80,-130 242,-130 242,-78 80,-78"/>
</g>
<!-- HistoryPageComponent -->
<g id="node1" class="node">
<title>HistoryPageComponent</title>
<polygon fill="#ffffb3" stroke="#000000" points="408.0379,-122 257.9621,-122 257.9621,-86 408.0379,-86 408.0379,-122"/>
<text text-anchor="middle" x="333" y="-99.8" font-family="Times,serif" font-size="14.00" fill="#000000">HistoryPageComponent</text>
</g>
<!-- HistoryModule -->
<g id="node2" class="node">
<title>HistoryModule</title>
<polygon fill="#8dd3c7" stroke="#000000" points="297.5438,-187 294.5438,-191 273.5438,-191 270.5438,-187 196.4562,-187 196.4562,-151 297.5438,-151 297.5438,-187"/>
<text text-anchor="middle" x="247" y="-164.8" font-family="Times,serif" font-size="14.00" fill="#000000">HistoryModule</text>
</g>
<!-- HistoryPageComponent&#45;&gt;HistoryModule -->
<g id="edge1" class="edge">
<title>HistoryPageComponent&#45;&gt;HistoryModule</title>
<path fill="none" stroke="#000000" d="M277.7514,-122.1061C277.7514,-122.1061 277.7514,-140.991 277.7514,-140.991"/>
<polygon fill="#000000" stroke="#000000" points="274.2515,-140.9909 277.7514,-150.991 281.2515,-140.991 274.2515,-140.9909"/>
</g>
<!-- HistoryRoutingModule -->
<g id="node3" class="node">
<title>HistoryRoutingModule</title>
<polygon fill="#8dd3c7" stroke="#000000" points="234.161,-122 231.161,-126 210.161,-126 207.161,-122 87.839,-122 87.839,-86 234.161,-86 234.161,-122"/>
<text text-anchor="middle" x="161" y="-99.8" font-family="Times,serif" font-size="14.00" fill="#000000">HistoryRoutingModule</text>
</g>
<!-- HistoryRoutingModule&#45;&gt;HistoryModule -->
<g id="edge2" class="edge">
<title>HistoryRoutingModule&#45;&gt;HistoryModule</title>
<path fill="none" stroke="#000000" d="M215.2795,-122.1061C215.2795,-122.1061 215.2795,-140.991 215.2795,-140.991"/>
<polygon fill="#000000" stroke="#000000" points="211.7795,-140.9909 215.2795,-150.991 218.7795,-140.991 211.7795,-140.9909"/>
</g>
</g>
</svg>
