<?xml version="1.0" encoding="UTF-8" standalone="no"?>
<!DOCTYPE svg PUBLIC "-//W3C//DTD SVG 1.1//EN"
 "http://www.w3.org/Graphics/SVG/1.1/DTD/svg11.dtd">
<!-- Generated by graphviz version 2.40.1 (20161225.0304)
 -->
<!-- Title: dependencies Pages: 1 -->
<svg width="694pt" height="211pt"
 viewBox="0.00 0.00 694.00 211.00" xmlns="http://www.w3.org/2000/svg" xmlns:xlink="http://www.w3.org/1999/xlink">
<g id="graph0" class="graph" transform="scale(1 1) rotate(0) translate(4 207)">
<title>dependencies</title>
<polygon fill="#ffffff" stroke="transparent" points="-4,4 -4,-207 690,-207 690,4 -4,4"/>
<text text-anchor="start" x="322.0091" y="-42.4" font-family="sans-serif" font-weight="bold" font-size="14.00" fill="#000000">Legend</text>
<polygon fill="#ffffb3" stroke="transparent" points="109,-10 109,-30 129,-30 129,-10 109,-10"/>
<text text-anchor="start" x="132.629" y="-15.4" font-family="sans-serif" font-size="14.00" fill="#000000"> &#160;Declarations</text>
<polygon fill="#8dd3c7" stroke="transparent" points="222,-10 222,-30 242,-30 242,-10 222,-10"/>
<text text-anchor="start" x="245.7251" y="-15.4" font-family="sans-serif" font-size="14.00" fill="#000000"> &#160;Module</text>
<polygon fill="#80b1d3" stroke="transparent" points="308,-10 308,-30 328,-30 328,-10 308,-10"/>
<text text-anchor="start" x="331.7812" y="-15.4" font-family="sans-serif" font-size="14.00" fill="#000000"> &#160;Bootstrap</text>
<polygon fill="#fdb462" stroke="transparent" points="405,-10 405,-30 425,-30 425,-10 405,-10"/>
<text text-anchor="start" x="428.6732" y="-15.4" font-family="sans-serif" font-size="14.00" fill="#000000"> &#160;Providers</text>
<polygon fill="#fb8072" stroke="transparent" points="501,-10 501,-30 521,-30 521,-10 501,-10"/>
<text text-anchor="start" x="524.7258" y="-15.4" font-family="sans-serif" font-size="14.00" fill="#000000"> &#160;Exports</text>
<g id="clust1" class="cluster">
<title>cluster_DashboardModule</title>
<polygon fill="none" stroke="#000000" stroke-dasharray="1,5" points="8,-70 8,-195 678,-195 678,-70 8,-70"/>
</g>
<g id="clust2" class="cluster">
<title>cluster_DashboardModule_declarations</title>
<polygon fill="none" stroke="#000000" points="206,-78 206,-130 670,-130 670,-78 206,-78"/>
</g>
<g id="clust6" class="cluster">
<title>cluster_DashboardModule_imports</title>
<polygon fill="none" stroke="#000000" points="16,-78 16,-130 198,-130 198,-78 16,-78"/>
</g>
<!-- AuctionsListComponent -->
<g id="node1" class="node">
<title>AuctionsListComponent</title>
<polygon fill="#ffffb3" stroke="#000000" points="661.6582,-122 508.3418,-122 508.3418,-86 661.6582,-86 661.6582,-122"/>
<text text-anchor="middle" x="585" y="-99.8" font-family="Times,serif" font-size="14.00" fill="#000000">AuctionsListComponent</text>
</g>
<!-- DashboardModule -->
<g id="node4" class="node">
<title>DashboardModule</title>
<polygon fill="#8dd3c7" stroke="#000000" points="405.191,-187 402.191,-191 381.191,-191 378.191,-187 284.809,-187 284.809,-151 405.191,-151 405.191,-187"/>
<text text-anchor="middle" x="345" y="-164.8" font-family="Times,serif" font-size="14.00" fill="#000000">DashboardModule</text>
</g>
<!-- AuctionsListComponent&#45;&gt;DashboardModule -->
<g id="edge1" class="edge">
<title>AuctionsListComponent&#45;&gt;DashboardModule</title>
<path fill="none" stroke="#000000" d="M585,-122.1061C585,-141.3391 585,-169 585,-169 585,-169 415.2523,-169 415.2523,-169"/>
<polygon fill="#000000" stroke="#000000" points="415.2524,-165.5001 405.2523,-169 415.2523,-172.5001 415.2524,-165.5001"/>
</g>
<!-- DashboardComponent -->
<g id="node2" class="node">
<title>DashboardComponent</title>
<polygon fill="#ffffb3" stroke="#000000" points="489.9734,-122 348.0266,-122 348.0266,-86 489.9734,-86 489.9734,-122"/>
<text text-anchor="middle" x="419" y="-99.8" font-family="Times,serif" font-size="14.00" fill="#000000">DashboardComponent</text>
</g>
<!-- DashboardComponent&#45;&gt;DashboardModule -->
<g id="edge2" class="edge">
<title>DashboardComponent&#45;&gt;DashboardModule</title>
<path fill="none" stroke="#000000" d="M376.5544,-122.1061C376.5544,-122.1061 376.5544,-140.991 376.5544,-140.991"/>
<polygon fill="#000000" stroke="#000000" points="373.0544,-140.9909 376.5544,-150.991 380.0544,-140.991 373.0544,-140.9909"/>
</g>
<!-- DetailComponent -->
<g id="node3" class="node">
<title>DetailComponent</title>
<polygon fill="#ffffb3" stroke="#000000" points="329.5409,-122 214.4591,-122 214.4591,-86 329.5409,-86 329.5409,-122"/>
<text text-anchor="middle" x="272" y="-99.8" font-family="Times,serif" font-size="14.00" fill="#000000">DetailComponent</text>
</g>
<!-- DetailComponent&#45;&gt;DashboardModule -->
<g id="edge3" class="edge">
<title>DetailComponent&#45;&gt;DashboardModule</title>
<path fill="none" stroke="#000000" d="M307.3373,-122.1061C307.3373,-122.1061 307.3373,-140.991 307.3373,-140.991"/>
<polygon fill="#000000" stroke="#000000" points="303.8374,-140.9909 307.3373,-150.991 310.8374,-140.991 303.8374,-140.9909"/>
</g>
<!-- DashboardRoutingModule -->
<g id="node5" class="node">
<title>DashboardRoutingModule</title>
<polygon fill="#8dd3c7" stroke="#000000" points="189.8089,-122 186.8089,-126 165.8089,-126 162.8089,-122 24.1911,-122 24.1911,-86 189.8089,-86 189.8089,-122"/>
<text text-anchor="middle" x="107" y="-99.8" font-family="Times,serif" font-size="14.00" fill="#000000">DashboardRoutingModule</text>
</g>
<!-- DashboardRoutingModule&#45;&gt;DashboardModule -->
<g id="edge4" class="edge">
<title>DashboardRoutingModule&#45;&gt;DashboardModule</title>
<path fill="none" stroke="#000000" d="M107,-122.1061C107,-141.3391 107,-169 107,-169 107,-169 274.6349,-169 274.6349,-169"/>
<polygon fill="#000000" stroke="#000000" points="274.6349,-172.5001 284.6349,-169 274.6348,-165.5001 274.6349,-172.5001"/>
</g>
</g>
</svg>
